<svg xmlns="http://www.w3.org/2000/svg" viewBox="0 0 512 512">
  <defs>
    <linearGradient id="bg" x1="0%" y1="0%" x2="100%" y2="100%">
      <stop offset="0%" stop-color="#00C9FF"/>
      <stop offset="50%" stop-color="#7B61FF"/>
      <stop offset="100%" stop-color="#C471ED"/>
    </linearGradient>
  </defs>
  <!-- Brain shape -->
  <path fill="url(#bg)" d="M256 40C196 40 148 72 132 120C96 132 68 172 68 218C68 230 70 242 74 252C48 272 32 304 32 340C32 388 64 428 108 440C120 468 152 488 192 488C216 488 238 480 256 466C274 480 296 488 320 488C360 488 392 468 404 440C448 428 480 388 480 340C480 304 464 272 438 252C442 242 444 230 444 218C444 172 416 132 380 120C364 72 316 40 256 40Z"/>
  <!-- White squares (pixels) -->
  <rect x="160" y="130" width="24" height="24" rx="4" fill="white" opacity="0.9"/>
  <rect x="200" y="110" width="20" height="20" rx="3" fill="white" opacity="0.85"/>
  <rect x="280" y="120" width="22" height="22" rx="4" fill="white" opacity="0.9"/>
  <rect x="320" y="140" width="24" height="24" rx="4" fill="white" opacity="0.88"/>
  <rect x="240" y="160" width="18" height="18" rx="3" fill="white" opacity="0.82"/>
  <rect x="300" y="170" width="20" height="20" rx="3" fill="white" opacity="0.86"/>
  <rect x="140" y="190" width="22" height="22" rx="4" fill="white" opacity="0.84"/>
  <rect x="190" y="200" width="24" height="24" rx="4" fill="white" opacity="0.9"/>
  <rect x="260" y="210" width="20" height="20" rx="3" fill="white" opacity="0.87"/>
  <rect x="340" y="200" width="18" height="18" rx="3" fill="white" opacity="0.83"/>
  <rect x="220" y="250" width="22" height="22" rx="4" fill="white" opacity="0.88"/>
  <rect x="310" y="240" width="24" height="24" rx="4" fill="white" opacity="0.91"/>
  <rect x="170" y="270" width="20" height="20" rx="3" fill="white" opacity="0.85"/>
  <rect x="250" y="290" width="18" height="18" rx="3" fill="white" opacity="0.82"/>
  <rect x="350" y="260" width="22" height="22" rx="4" fill="white" opacity="0.87"/>
  <rect x="200" y="330" width="20" height="20" rx="3" fill="white" opacity="0.84"/>
</svg>
